<svg width="217" height="313" viewBox="0 0 217 313" fill="none" xmlns="http://www.w3.org/2000/svg">
<path d="M118.503 148.075C120.756 147.056 120.756 147.056 123.009 146.037C123.009 146.037 125.262 145.018 124.425 143.166L123.587 141.314L121.334 142.333C116.827 144.371 117.665 146.223 118.503 148.075ZM91.725 166.881C93.978 165.862 94.816 167.715 97.069 166.695L99.322 165.676L98.485 163.824C97.647 161.972 94.556 161.139 94.556 161.139L92.302 162.158L90.0494 163.177L87.7961 164.196L85.5431 165.215L84.1276 168.087L84.9654 169.939C88.634 166.048 88.634 166.048 91.725 166.881C90.8872 165.029 90.8872 165.029 91.725 166.881ZM133.812 109.914C132.396 112.786 133.234 114.638 135.487 113.619C137.741 112.599 137.74 112.6 136.903 110.747C136.065 108.895 136.065 108.895 133.812 109.914ZM129.769 142.979C128.354 145.851 128.353 145.851 128.353 145.851C129.191 147.703 131.444 146.684 133.698 145.665C135.951 144.646 138.204 143.626 137.366 141.774L136.528 139.922C132.022 141.96 132.022 141.96 129.769 142.979ZM118.357 105.749L116.104 106.768L113.851 107.787L112.435 110.659L114.688 109.64L112.435 110.659C112.435 110.659 112.435 110.659 110.182 111.678L107.929 112.697L105.675 113.716C105.675 113.716 106.513 115.568 108.767 114.549L111.02 113.53L113.273 112.511L114.688 109.64L116.941 108.62L116.104 106.768C116.104 106.768 116.104 106.768 113.013 105.935L118.357 105.749C119.195 107.601 119.195 107.601 118.357 105.749ZM114.054 132.239C113.216 130.386 110.963 131.405 114.054 132.239L110.963 131.405C110.963 131.405 108.709 132.425 109.547 134.277L110.385 136.129L111.223 137.981C111.223 137.981 112.061 139.834 116.567 137.795L118.82 136.776L117.983 134.924C114.892 134.091 114.054 132.239 114.054 132.239ZM99.322 165.676L97.907 168.548C98.745 170.4 100.998 169.381 101.836 171.233C101.836 171.233 101.836 171.233 102.674 173.085C103.512 174.937 103.511 174.937 105.765 173.918L106.602 175.77C106.602 175.77 108.278 179.475 112.784 177.436C112.784 177.436 114.2 174.565 111.946 175.584C111.109 173.732 111.109 173.732 108.856 174.751L106.602 175.77L105.765 173.918C105.765 173.918 105.765 173.918 104.927 172.066L106.342 169.194L105.504 167.342L102.413 166.509C104.666 165.49 103.829 163.638 103.829 163.638L102.991 161.786L100.738 162.805L99.9 160.953L97.647 161.972C97.647 161.972 95.393 162.991 93.978 165.862L99.322 165.676L101.575 164.657C101.575 164.657 101.576 164.657 99.322 165.676ZM123.733 183.64L125.148 180.769L124.311 178.916C123.473 177.064 121.22 178.083 118.967 179.102L116.713 180.122L118.967 179.102L116.713 180.122C117.551 181.974 117.551 181.974 117.551 181.974C121.48 184.659 123.733 183.64 123.733 183.64ZM104.609 183.365C103.194 186.237 104.032 188.089 104.032 188.089L106.285 187.07L108.538 186.051C108.538 186.051 110.791 185.031 109.954 183.179C109.954 183.179 112.207 182.16 111.369 180.308L110.531 178.456L108.278 179.475L106.025 180.494L103.772 181.513C104.609 183.365 104.609 183.365 104.609 183.365ZM131.388 164.559L129.134 165.579L126.881 166.598C126.881 166.598 125.466 169.469 127.719 168.45C127.719 168.45 128.557 170.302 130.81 169.283L133.063 168.264L135.316 167.245C135.316 167.245 134.479 165.392 131.388 164.559C134.479 165.392 133.641 163.54 131.388 164.559ZM183.015 290.697L182.177 288.844L179.924 289.864L177.67 290.883C175.417 291.902 176.255 293.754 176.255 293.754L177.093 295.606C177.093 295.606 177.093 295.606 177.931 297.459L183.015 290.697C183.853 292.549 183.853 292.549 183.015 290.697ZM151.032 177.986L148.778 179.005L146.525 180.024L145.11 182.895C147.363 181.876 149.616 180.857 149.616 180.857C151.869 179.838 151.032 177.986 151.032 177.986ZM80.1666 87.324L78.7515 90.196C79.5893 92.048 81.8423 91.029 81.8423 91.029L84.0956 90.01L86.3486 88.991L85.5108 87.138C84.6729 85.286 82.42 86.305 82.42 86.305C82.42 86.305 82.4198 86.305 80.1666 87.324ZM35.4773 78.533L36.3151 80.385C39.4061 81.218 41.6593 80.199 43.0747 77.328L42.2369 75.476L41.3991 73.623L40.5613 71.771L38.3079 72.79L37.4701 70.938C37.4701 70.938 34.3792 70.105 32.9638 72.977L31.5487 75.848L29.2953 76.867C27.0422 77.886 27.042 77.886 27.8798 79.739L28.7176 81.591L30.971 80.572L35.4773 78.533C33.2241 79.552 33.2243 79.552 33.2243 79.552C30.9711 80.572 33.2241 79.552 35.4773 78.533ZM75.9776 78.063C75.1398 76.211 75.14 76.211 72.8868 77.23L70.6335 78.249L68.3802 79.269C68.3802 79.269 68.3801 79.269 69.218 81.121C66.127 80.288 64.7116 83.159 64.7116 83.159L65.5494 85.011C65.5494 85.011 66.3874 86.864 68.6406 85.844L70.8936 84.825L73.1469 83.806L75.4002 82.787L76.238 84.639L77.0759 86.491L74.8225 87.511L72.5692 88.53C72.5692 88.53 71.1538 91.401 74.2448 92.234C74.2448 92.234 76.4982 91.215 75.6603 89.363C75.6603 89.363 77.0757 86.491 73.9847 85.658C73.9847 85.658 73.9849 85.658 76.238 84.639L78.491 83.62L77.6532 81.768C79.0686 78.896 78.2308 77.044 75.9776 78.063ZM77.4502 57.316C75.197 58.336 75.197 58.336 77.4502 57.316L76.0347 60.188C76.0347 60.188 76.8726 62.04 79.1258 61.021L81.3788 60.002L83.6321 58.983L85.0473 56.111C84.2095 54.259 81.9564 55.278 79.7032 56.297C79.7032 56.297 79.7034 56.297 77.4502 57.316ZM50.0945 80.846C52.3476 79.827 52.3478 79.827 52.3478 79.827C52.3478 79.827 52.3476 79.827 54.6008 78.808L56.0163 75.936L55.1785 74.084L57.4318 73.065L59.6848 72.046L58.8469 70.194L56.594 71.213L54.3406 72.232L52.0873 73.251C49.8341 74.27 49.8342 74.27 47.581 75.29L45.328 76.309C45.328 76.309 43.0747 77.328 43.9125 79.18L44.7503 81.032C44.7503 81.032 45.5883 82.884 47.8415 81.865L50.0945 80.846ZM71.8456 50.927L69.5923 51.946L70.4301 53.798C70.4301 53.798 70.4303 53.798 72.6834 52.779L74.9368 51.76L77.1897 50.741C77.1897 50.741 77.1898 50.741 78.0276 52.593L80.2809 51.574L82.5339 50.555L84.7872 49.535C87.0404 48.516 86.2027 46.664 85.3649 44.812L83.1116 45.831L80.8582 46.85C80.8582 46.85 80.8585 46.85 78.6053 47.869L77.7674 46.017C74.0989 49.908 71.8456 50.927 71.8456 50.927ZM74.6763 45.184L73.2611 48.055L74.099 49.908C74.099 49.908 77.1899 50.741 78.6053 47.869L80.0204 44.998L79.1826 43.146L76.9296 44.165L74.6763 45.184ZM93.369 92.509C94.784 89.637 94.784 89.637 93.946 87.785C93.946 87.785 93.108 85.933 90.8552 86.952C90.8552 86.952 88.6019 87.971 89.4397 89.824L90.2775 91.676L92.531 90.657C91.1155 93.528 93.369 92.509 93.369 92.509ZM94.409 118.812C96.663 117.793 95.825 115.941 95.825 115.941L94.987 114.089L92.734 115.108L90.4809 116.127L89.6431 114.275L87.3897 115.294C87.3897 115.294 87.3896 115.294 84.2986 114.461L82.0456 115.48C82.0456 115.48 82.0455 115.48 80.6301 118.351L81.4679 120.204C81.4679 120.204 81.468 120.204 84.559 121.037L87.6499 121.87L89.9032 120.851L92.157 119.831C89.9033 120.85 92.156 119.831 94.409 118.812ZM98.396 103.622C101.487 104.455 103.74 103.436 103.74 103.436C103.74 103.436 105.993 102.417 105.155 100.565L104.317 98.712L102.064 99.732C96.72 99.918 97.558 101.77 98.396 103.622ZM63.4104 50.28C64.2482 52.132 64.2482 52.132 63.4104 50.28C64.2482 52.132 66.5015 51.113 67.3393 52.965L69.5923 51.946L68.7545 50.094C67.0789 46.389 64.8258 47.409 63.4104 50.28ZM95.044 96.213C92.791 97.232 90.5376 98.252 91.3755 100.104C91.3755 100.104 91.3757 100.104 89.9603 102.975L90.7981 104.827C90.7981 104.827 90.7979 104.827 93.889 105.661L96.142 104.641C96.142 104.641 96.142 104.641 97.558 101.77L96.72 99.918C96.72 99.918 96.72 99.918 98.973 98.899C96.72 99.918 98.973 98.898 95.044 96.213ZM110.556 82.503C110.556 82.503 111.971 79.632 110.556 82.503C111.971 79.632 111.971 79.632 110.556 82.503L111.972 79.632C113.387 76.76 113.387 76.76 110.296 75.927L108.043 76.946L105.79 77.966L103.536 78.985C101.283 80.004 101.283 80.004 101.283 80.004C101.283 80.004 102.121 81.856 104.374 80.837L110.556 82.503ZM114.143 192.44C114.143 192.44 113.305 190.588 114.143 192.44C113.305 190.588 113.305 190.588 114.143 192.44C113.305 190.588 113.305 190.588 114.143 192.44C113.305 190.588 113.305 190.588 114.143 192.44C111.052 191.607 111.052 191.607 114.143 192.44C111.052 191.607 111.052 191.607 114.143 192.44ZM104.838 111.864C107.929 112.697 110.182 111.678 111.597 108.806C111.597 108.806 113.013 105.935 110.759 106.954L108.506 107.974C103.162 108.16 101.747 111.031 104.838 111.864ZM140.896 269.587C141.733 271.439 144.825 272.272 144.825 272.272C147.078 271.253 147.078 271.253 148.493 268.381L147.655 266.529L144.564 265.696C142.311 266.715 140.058 267.735 140.896 269.587ZM188.213 248.184L185.959 249.203C185.959 249.203 185.959 249.203 188.213 248.184L190.466 247.165L192.719 246.146L191.881 244.293C192.719 246.146 192.719 246.146 188.213 248.184C190.466 247.165 190.466 247.165 188.213 248.184ZM153.26 272.919C155.513 271.9 154.675 270.048 153.26 272.919C154.675 270.048 151.584 269.214 151.584 269.214C151.584 269.214 148.493 268.381 147.078 271.253C147.078 271.253 144.824 272.272 145.662 274.124C145.662 274.124 145.662 274.124 147.916 273.105L153.26 272.919ZM174.116 259.023L171.025 258.19C168.772 259.209 167.356 262.08 167.356 262.08L169.61 261.061C171.863 260.042 171.863 260.042 171.025 258.19C174.954 260.875 174.954 260.875 174.116 259.023ZM136.707 260.326L134.454 261.345L132.2 262.364C132.2 262.364 132.2 262.364 129.947 263.383L127.694 264.402L128.532 266.255C130.785 265.235 130.785 265.235 130.785 265.235L133.038 264.216L135.291 263.197C137.545 262.178 137.544 262.178 137.544 262.178L138.96 259.307C142.051 260.14 139.798 261.159 136.707 260.326ZM136.707 260.326C138.96 259.307 138.96 259.307 136.707 260.326C138.122 257.454 137.284 255.602 135.031 256.621L132.778 257.64C132.778 257.64 130.525 258.66 131.362 260.512C132.2 262.364 132.2 262.364 134.454 261.345C135.291 263.197 137.544 262.178 136.707 260.326ZM156.408 255.877L157.823 253.005C156.985 251.153 154.732 252.172 154.732 252.172L152.479 253.191L150.226 254.211L151.064 256.063C151.901 257.915 154.155 256.896 154.155 256.896C154.155 256.896 154.154 256.896 156.408 255.877ZM140.521 298.762C141.937 295.89 141.937 295.89 138.846 295.057C138.846 295.057 138.008 293.205 135.755 294.224L133.501 295.243L134.339 297.096L136.593 296.076L140.521 298.762ZM150.372 296.537C147.281 295.704 145.866 298.575 143.612 299.595L144.45 301.447C144.45 301.447 144.45 301.447 146.704 300.428L148.956 299.409L151.21 298.389C151.21 298.389 151.21 298.389 152.625 295.518L150.372 296.537ZM187 275.507C186.163 273.654 183.909 274.674 183.909 274.674L181.656 275.693C182.494 277.545 183.332 279.397 185.585 278.378C187.838 277.359 187 275.507 187 275.507ZM148.176 279.681C149.014 281.533 149.014 281.533 151.267 280.514L152.105 282.366C152.943 284.218 152.942 284.219 155.196 283.199C157.449 282.18 157.449 282.18 156.611 280.328C155.773 278.476 155.773 278.476 152.682 277.643L151.844 275.79L149.591 276.809L151.006 273.938L148.754 274.957C148.754 274.957 147.338 277.829 148.176 279.681ZM138.325 281.905C139.163 283.758 139.163 283.758 141.416 282.739C141.416 282.739 143.669 281.719 145.922 280.7C145.922 280.7 145.923 280.7 147.338 277.829C147.338 277.829 146.5 275.977 144.247 276.996C141.994 278.015 141.994 278.015 138.325 281.905C139.741 279.034 140.579 280.886 138.325 281.905ZM197.429 268.558L195.175 269.578C195.175 269.578 195.175 269.578 197.429 268.558L199.682 267.539L201.935 266.52L201.097 264.668C201.097 264.668 198.844 265.687 197.429 268.558ZM128.589 248.379L125.498 247.546L123.245 248.565C120.992 249.585 120.991 249.585 118.738 250.604L119.576 252.456C120.414 254.308 120.414 254.308 122.667 253.289C122.667 253.289 122.667 253.289 124.92 252.27L125.758 254.122C126.596 255.974 126.596 255.974 126.596 255.974L128.849 254.955L131.102 253.936L130.264 252.084L132.517 251.065L133.933 248.193C133.095 246.341 133.095 246.341 130.004 245.508C130.842 247.36 130.842 247.36 128.589 248.379ZM135.78 198.272C134.942 196.419 132.689 197.439 135.78 198.272C132.689 197.439 130.435 198.458 130.435 198.458L129.02 201.329C129.02 201.329 129.02 201.329 131.273 200.31L133.527 199.291L135.78 198.272ZM166.576 242.353C167.413 244.205 167.413 244.205 166.576 242.353C165.16 245.224 165.16 245.224 165.998 247.076C165.998 247.076 165.998 247.076 162.907 246.243C162.907 246.243 160.654 247.262 161.492 249.115L162.33 250.967L163.167 252.819C163.167 252.819 166.258 253.652 168.511 252.633L167.674 250.781C167.674 250.781 170.765 251.614 173.018 250.595L175.271 249.575C174.433 247.723 174.433 247.723 171.342 246.89L166.576 242.353ZM99.151 219.302C96.898 220.321 94.645 221.341 95.483 223.193L97.736 222.174C99.989 221.154 99.151 219.302 98.313 217.45C98.313 217.45 100.567 216.431 99.729 214.578L98.891 212.726L101.144 211.707C101.144 211.707 103.397 210.688 105.651 209.669L107.904 208.65C110.157 207.63 109.319 205.778 109.319 205.778C108.481 203.926 106.228 204.945 103.975 205.964L101.722 206.984L99.468 208.003L101.722 206.984L100.884 205.131C100.046 203.279 100.046 203.279 97.793 204.298L95.54 205.317L93.286 206.337L94.124 208.189C94.124 208.189 94.124 208.189 94.962 210.041L92.709 211.06L90.4558 212.079C90.4558 212.079 90.4558 212.079 91.2936 213.932C91.2936 213.932 91.2936 213.932 92.131 215.784C89.8782 216.803 89.878 216.803 90.7158 218.655L99.151 219.302ZM146.468 197.899C147.306 199.752 147.306 199.752 148.144 201.604L150.397 200.585L152.65 199.565L151.812 197.713C150.974 195.861 150.974 195.861 148.721 196.88L146.468 197.899C148.721 196.88 148.721 196.88 146.468 197.899ZM167.902 179.28L165.649 180.299L163.395 181.318C161.98 184.189 162.818 186.041 165.071 185.022L162.818 186.041L161.403 188.913L162.24 190.765L164.494 189.746C164.494 189.746 164.493 189.746 165.909 186.874L165.071 185.022L164.233 183.17C166.486 182.151 166.487 182.151 165.649 180.299C170.993 180.112 170.155 178.26 167.902 179.28ZM108.684 228.377C106.431 229.396 106.431 229.396 107.269 231.248L108.107 233.101L110.36 232.082C110.36 232.082 110.36 232.082 112.613 231.062L111.775 229.21C110.938 227.358 108.684 228.377 108.684 228.377ZM125.612 211.796L127.865 210.776C127.865 210.776 129.28 207.905 126.189 207.072L123.936 208.091L121.683 209.11C119.43 210.13 120.268 211.982 120.268 211.982C122.521 210.963 123.359 212.815 125.612 211.796ZM160.451 222.811C159.035 225.683 159.035 225.683 159.873 227.535C159.873 227.535 162.964 228.368 165.217 227.349L167.471 226.33C166.633 224.477 166.633 224.477 163.542 223.644L160.451 222.811ZM122.578 193.087L120.325 194.106C119.487 192.254 117.234 193.273 117.234 193.273L114.98 194.293L112.727 195.312C111.312 198.183 112.15 200.035 114.403 199.016L116.656 197.997C118.909 196.978 118.909 196.978 118.909 196.978C118.909 196.978 118.909 196.978 121.162 195.959L123.416 194.939C123.416 194.939 123.416 194.939 122.578 193.087L121.74 191.235L122.578 193.087C123.416 194.939 122.578 193.087 122.578 193.087ZM160.971 235.963L161.809 237.815C161.809 237.815 162.647 239.667 164.9 238.648L167.153 237.629L169.406 236.61L168.569 234.758C168.569 234.758 167.731 232.906 165.477 233.925L163.224 234.944L160.971 235.963ZM128.328 241.804C128.328 241.804 126.075 242.823 128.328 241.804C129.166 243.656 126.913 244.675 130.004 245.508L131.42 242.636C130.582 240.784 130.582 240.784 127.491 239.951L128.328 241.804ZM142.425 230.965L143.263 232.817L145.516 231.798C146.354 233.65 148.607 232.631 148.607 232.631L150.86 231.612C153.113 230.593 152.276 228.74 152.276 228.74L151.438 226.888L149.185 227.907L146.932 228.926L142.425 230.965ZM140.432 238.56C140.432 238.56 138.179 239.579 135.926 240.598L133.673 241.617L134.511 243.469C134.511 243.469 136.186 247.174 138.439 246.155L139.855 243.283C142.685 237.54 142.685 237.541 140.432 238.56ZM118.941 275.055C118.104 273.203 118.104 273.203 118.104 273.203C118.104 273.203 118.104 273.203 120.357 272.183L122.61 271.164L121.772 269.312L120.934 267.46L118.681 268.479L117.843 266.627L117.006 264.775C117.006 264.775 117.005 264.775 114.752 265.794C114.752 265.794 114.752 265.794 115.59 267.646L116.428 269.498L118.681 268.479L119.519 270.331C119.519 270.331 119.519 270.331 117.266 271.351L115.012 272.37C115.012 272.37 115.013 272.37 112.759 273.389C112.759 273.389 115.012 272.37 114.175 270.518L113.337 268.665L112.499 266.813L117.526 277.926L119.779 276.907L122.033 275.888L124.286 274.869C117.526 277.926 116.688 276.074 118.941 275.055ZM115.647 249.771L117.9 248.752L120.154 247.732L119.316 245.88C119.316 245.88 118.478 244.028 116.225 245.047L113.972 246.066C113.972 246.066 111.718 247.086 112.556 248.938L113.394 250.79L111.141 251.809L108.888 252.828L106.634 253.848C106.634 253.848 106.635 253.847 104.381 254.867L102.128 255.886C102.128 255.886 102.128 255.886 102.966 257.738L103.804 259.59C103.804 259.59 103.804 259.59 106.057 258.571L108.31 257.552C108.31 257.552 108.31 257.552 110.563 256.533L112.817 255.513C115.07 254.494 114.232 252.642 114.232 252.642C114.232 252.642 114.232 252.642 115.07 254.494L115.647 249.771ZM137.17 291.353L139.423 290.334C138.586 288.481 138.585 288.481 138.585 288.481C138.585 288.481 137.748 286.629 135.494 287.648C134.657 285.796 132.404 286.815 132.404 286.815L130.15 287.834C130.15 287.834 128.735 290.706 131.826 291.539C131.826 291.539 128.735 290.706 126.482 291.725C126.482 291.725 126.482 291.725 124.228 292.744L121.975 293.763L121.138 291.911C121.138 291.911 118.884 292.93 116.631 293.949C116.631 293.949 114.378 294.969 115.216 296.821L116.054 298.673L118.307 297.654L119.145 299.506C119.145 299.506 119.982 301.358 122.236 300.339C124.489 299.32 124.489 299.32 126.742 298.301L128.995 297.282L131.248 296.262L137.17 291.353C138.008 293.205 140.261 292.186 137.17 291.353C139.423 290.334 140.261 292.186 137.17 291.353ZM102.649 269.038C102.649 269.038 104.902 268.018 104.064 266.166L103.226 264.314L100.973 265.333L100.135 263.481L102.649 269.038ZM124.546 281.445C123.708 279.592 123.708 279.592 120.617 278.759L118.364 279.779L116.111 280.798C116.111 280.798 113.857 281.817 114.695 283.669L115.533 285.521L118.624 286.354C123.968 286.168 125.384 283.297 124.546 281.445ZM14.4748 50.103C15.3126 51.955 15.3126 51.955 15.3126 51.955L17.5659 50.936C19.8191 49.917 19.819 49.917 22.0722 48.898L22.9101 50.75C22.9101 50.75 22.9101 50.75 23.7479 52.602C24.5857 54.454 24.5858 54.454 26.839 53.435C29.0922 52.416 29.0922 52.416 31.3453 51.397L32.7608 48.525L31.923 46.673L29.6697 47.692C31.0851 44.821 31.0852 44.821 30.2474 42.969L27.9941 43.988L25.7407 45.007L23.4878 46.026C15.8904 47.232 14.4748 50.103 14.4748 50.103ZM128.214 277.554L129.63 274.683C128.792 272.831 128.792 272.831 128.792 272.831L126.539 273.85L124.286 274.869C122.87 277.74 125.123 276.721 128.214 277.554ZM28.1974 68.439C29.6128 65.568 29.6126 65.568 29.6126 65.568L31.8659 64.548C31.0281 62.696 31.028 62.696 27.9369 61.863C25.6838 62.882 23.4306 63.902 23.4306 63.902L24.2685 65.754C24.2685 65.754 24.2683 65.754 22.0151 66.773L22.8529 68.625C23.6908 70.477 25.9442 69.458 28.1974 68.439ZM22.5928 62.049L21.755 60.197L19.5017 61.216L18.6639 59.364C18.6639 59.364 18.6641 59.364 16.4109 60.383L18.6639 59.364C18.6639 59.364 20.9172 58.345 20.0794 56.493L19.2416 54.64L16.9882 55.66C16.9882 55.66 16.1507 53.807 13.8975 54.827C13.8975 54.827 13.0595 52.974 10.8063 53.994C11.6441 55.846 11.6441 55.846 12.4819 57.698L15.8332 65.107L18.0865 64.088L18.9243 65.94C19.7622 67.792 22.0153 66.773 24.2685 65.754C21.1775 64.921 23.4307 63.902 22.5928 62.049ZM76.7335 193.743L75.8957 191.891L73.6423 192.91L72.8045 191.058L71.9667 189.206L71.1289 187.354L70.2911 185.501L76.1558 198.467L78.4091 197.448L76.7335 193.743ZM80.7192 178.553L83.8104 179.386C83.8104 179.386 84.648 181.239 86.9011 180.219C86.9011 180.219 86.9013 180.219 89.1545 179.2L86.9011 180.219L87.739 182.072C88.5768 183.924 88.5769 183.924 90.8301 182.905L93.921 183.738C93.921 183.738 93.921 183.738 93.083 181.885L92.246 180.033L93.083 181.885L95.336 180.866L94.499 179.014C93.661 177.162 92.823 175.31 92.823 175.31C92.823 175.31 91.9853 173.457 94.238 172.438L93.401 170.586L92.563 168.734C91.725 166.881 89.4717 167.901 89.4717 167.901C88.6339 166.048 87.7963 164.196 85.5431 165.215C83.2899 166.234 81.8743 169.106 81.8743 169.106L82.7121 170.958L80.4591 171.977C80.4591 171.977 80.4591 171.977 79.6213 170.125L78.7834 168.273C78.7834 168.273 78.7835 168.273 77.9456 166.421C77.9456 166.421 77.9455 166.421 74.8545 165.588L72.6015 166.607L71.7637 164.755L70.9259 162.902C70.9259 162.902 70.0879 161.05 67.8348 162.069L65.5814 163.089C65.5814 163.089 65.5816 163.088 63.3285 164.108C63.3285 164.108 63.3285 164.108 62.4907 162.255L65.5814 163.089L67.8348 162.069C68.6726 163.922 68.6727 163.922 71.7637 164.755L74.0167 163.735C76.2699 162.716 76.2698 162.716 77.6852 159.845C78.523 161.697 80.7763 160.678 80.7763 160.678L83.0297 159.659L85.2826 158.64L84.4448 156.787C86.698 155.768 85.8603 153.916 85.8603 153.916C85.8603 153.916 85.0224 152.064 82.7692 153.083L80.5162 154.102C80.5162 154.102 78.2629 155.121 79.1007 156.973C79.1007 156.973 78.2628 155.121 76.0096 156.14L73.7566 157.16C71.5034 158.179 71.5032 158.179 72.3411 160.031L70.0881 161.05C70.0881 161.05 70.0881 161.05 69.2503 159.198C69.2503 159.198 69.2503 159.198 68.4125 157.346C68.4125 157.346 68.4125 157.346 69.2503 159.198C69.2503 159.198 71.5034 158.179 73.7566 157.16L76.0096 156.14C76.0096 156.14 76.0097 156.14 79.1007 156.973L81.354 155.954L83.607 154.935L82.7692 153.083L81.9314 151.231L80.5162 154.102L81.354 155.954L82.1918 157.806L85.2826 158.64C86.1204 160.492 86.1205 160.492 86.9583 162.344L89.2116 161.325C89.2116 161.325 91.4646 160.306 90.6268 158.454C90.6268 158.454 89.7891 156.601 87.536 157.62L85.2826 158.64L86.6981 155.768C86.6981 155.768 86.6981 155.768 85.8603 153.916C85.8603 153.916 85.8603 153.916 85.0225 152.064L84.1847 150.211L83.3469 148.359C83.3469 148.359 83.3468 148.359 80.2558 147.526C80.2558 147.526 80.256 147.526 78.0028 148.545C78.0028 148.545 78.0026 148.545 75.7495 149.565L78.0028 148.545L77.1649 146.693L74.0738 145.86L71.8205 146.879C70.9827 145.027 68.7297 146.046 68.7297 146.046L66.4764 147.066L64.2234 148.085C62.808 150.956 63.6458 152.808 65.899 151.789L68.152 150.77C68.152 150.77 68.1522 150.77 65.899 151.789C65.899 151.789 65.8989 151.789 63.6457 152.808L61.3924 153.827L58.3016 152.994L56.0483 154.014C58.3015 152.994 58.3014 152.994 60.5546 151.975C60.5546 151.975 60.5546 151.975 59.7168 150.123C58.8789 148.271 55.7882 147.438 55.7882 147.438L58.0411 146.419L57.2033 144.566C56.3655 142.714 54.1124 143.733 51.8592 144.752C51.8592 144.752 51.8592 144.753 51.0214 142.9L50.1836 141.048C52.4367 140.029 52.4367 140.029 54.6899 139.01L56.1054 136.138L55.2676 134.286C52.1765 133.453 49.9234 134.472 50.7613 136.324C50.7613 136.324 49.9233 134.472 47.6701 135.491C46.8323 133.639 46.8323 133.639 46.8323 133.639C46.8323 133.639 46.8323 133.639 45.9945 131.787L48.2478 130.768L50.5008 129.749L52.7541 128.729L55.0074 127.71C55.0074 127.71 56.4228 124.839 53.3318 124.006L51.0785 125.025L48.8252 126.044C47.9873 124.192 47.9874 124.192 47.9874 124.192C47.9874 124.192 47.9876 124.192 44.8966 123.359C44.8966 123.359 47.1497 122.34 49.4029 121.321L51.6562 120.301L50.8184 118.449C50.8184 118.449 50.8184 118.449 49.9806 116.597C49.1428 114.745 49.1426 114.745 46.0516 113.912L48.3049 112.892L49.7201 110.021C49.7201 110.021 48.8825 108.169 46.6293 109.188L44.376 110.207C42.1228 111.226 42.1229 111.226 40.7075 114.098L41.5453 115.95L40.7075 114.098C38.4543 115.117 38.4542 115.117 38.4542 115.117C38.4542 115.117 36.2012 116.136 37.039 117.988L37.8768 119.84C40.9678 120.673 42.3831 117.802 42.3831 117.802C42.3831 117.802 42.3829 117.802 44.6361 116.783L47.7273 117.616C49.9804 116.597 52.2335 115.578 51.3957 113.725L50.5579 111.873L51.3957 113.725C51.3957 113.725 51.3959 113.725 49.9806 116.597L50.8184 118.449L53.0714 117.43C53.0714 117.43 53.0715 117.43 55.3247 116.411L56.1625 118.263C56.1625 118.263 56.1624 118.263 53.9092 119.282L51.6562 120.301L49.4029 121.321L47.1496 122.34C47.1496 122.34 47.1495 122.34 47.9874 124.192C47.9874 124.192 47.9876 124.192 44.8966 123.359L44.0587 121.507C44.0587 121.507 44.0588 121.507 43.221 119.654L40.9676 120.674L38.7146 121.693C38.7146 121.693 36.4613 122.712 37.2991 124.564L39.5524 123.545C39.5524 123.545 39.5525 123.545 38.7146 121.693L37.8768 119.84C37.8768 119.84 37.8767 119.84 35.6235 120.86L33.3702 121.879C33.3702 121.879 33.3702 121.879 32.5324 120.027L37.5592 131.14C37.5592 131.14 38.9746 128.269 36.7214 129.288L39.8126 130.121L42.0659 129.102L44.3189 128.082L45.1567 129.935L42.9037 130.954L40.6504 131.973L38.3971 132.992L39.2349 134.844C39.2349 134.844 40.0728 136.697 42.326 135.678L43.1638 137.53L44.0016 139.382C44.0016 139.382 44.0018 139.382 46.255 138.363C46.255 138.363 46.255 138.363 47.0928 140.215C47.0928 140.215 47.0926 140.215 44.8395 141.234L42.5861 142.253C42.5861 142.253 40.3331 143.272 41.171 145.125L42.0088 146.977L43.6844 150.681C45.9376 149.662 45.9375 149.662 48.1907 148.643L50.444 147.624L52.697 146.605C52.697 146.605 52.6971 146.605 54.9503 145.585L57.2033 144.566L59.4566 143.547L60.2945 145.399L58.0411 146.419C58.0411 146.419 58.0411 146.419 57.2033 144.566L54.9503 145.585C52.6971 146.605 53.5348 148.457 54.3726 150.309C54.3726 150.309 54.3728 150.309 57.4638 151.142C57.4638 151.142 55.2104 152.161 56.0483 154.014L56.8861 155.866C56.8861 155.866 56.8861 155.866 57.7239 157.718L59.9772 156.699C62.2304 155.68 62.2303 155.68 64.4835 154.66C64.4835 154.66 64.4835 154.66 65.3213 156.513L66.1592 158.365C66.1592 158.365 66.1591 158.365 66.997 160.217L64.7436 161.236L62.4907 162.255L61.6529 160.403L59.3995 161.423L57.1466 162.442C54.8934 163.461 55.731 165.313 55.731 165.313L53.4777 166.332L51.2247 167.351C51.2247 167.351 51.2246 167.351 48.9714 168.371L51.4848 173.927C51.4848 173.927 51.485 173.927 53.7382 172.908C53.7382 172.908 53.7382 172.908 54.576 174.76L55.4138 176.612C55.4138 176.612 55.4136 176.613 53.1605 177.632C53.1605 177.632 53.9984 179.484 56.2516 178.465L58.5046 177.446L59.3424 179.298L60.1802 181.15L61.018 183.002C61.018 183.002 61.018 183.002 61.8558 184.855C61.8558 184.855 61.856 184.854 59.6029 185.874L62.9541 193.283L65.2071 192.263L64.3693 190.411C64.3693 190.411 64.3694 190.411 66.6226 189.392C66.6226 189.392 64.3693 190.411 65.2071 192.263C66.0449 194.116 66.045 194.116 69.136 194.949C69.136 194.949 69.1362 194.949 71.3894 193.929C73.6425 192.91 72.8047 191.058 75.0579 190.039C75.8957 191.891 79.8244 194.576 82.9154 195.409C82.9154 195.409 80.6621 196.429 81.4999 198.281C76.2128 180.592 78.466 179.572 80.7192 178.553ZM91.4078 178.181C91.4078 178.181 89.1546 179.2 91.4078 178.181C89.9924 181.052 89.9923 181.052 89.9923 181.052L91.4078 178.181ZM44.376 110.207C45.7914 107.336 45.7914 107.336 44.376 110.207C46.6292 109.188 44.376 110.207 44.376 110.207ZM51.3957 113.725L50.5579 111.873L49.7201 110.021C49.7201 110.021 51.9734 109.002 51.1356 107.15L53.3886 106.13C53.3886 106.13 53.3886 106.131 54.2264 107.983L56.4798 106.963L54.2264 107.983L51.9734 109.002L51.3957 113.725C53.6489 112.706 53.6489 112.706 51.3957 113.725C53.6489 112.706 53.6489 112.706 51.3957 113.725ZM63.4424 128.357C65.6956 127.338 65.6956 127.338 63.4424 128.357C65.6956 127.338 65.6956 127.338 63.4424 128.357C65.6956 127.338 65.6956 127.338 63.4424 128.357ZM79.1578 139.098L79.9956 140.95L76.9045 140.117L79.1578 139.098C78.32 137.246 79.1578 139.098 79.1578 139.098ZM62.8079 150.956L60.5546 151.975L62.8079 150.956C59.7169 150.123 59.7167 150.123 58.8789 148.271L58.0411 146.419C58.0411 146.419 58.0411 146.419 57.2033 144.566L58.0411 146.419L62.8079 150.956ZM84.3877 174.663C86.6409 173.644 86.6409 173.644 84.3877 174.663C86.6409 173.644 86.6409 173.644 84.3877 174.663C86.6409 173.644 86.6409 173.644 84.3877 174.663ZM78.7264 186.148C79.5642 188.001 77.311 189.02 78.7264 186.148C79.5642 188.001 80.4021 189.853 82.6553 188.833L84.9083 187.814L86.3238 184.943C86.3238 184.943 85.4859 183.091 83.2327 184.11L80.9797 185.129L78.7264 186.148L80.1419 183.277L79.304 181.425L77.0507 182.444L74.7974 183.463C72.5442 184.482 72.5444 184.482 73.3822 186.334L74.2201 188.187C74.2201 188.187 74.22 188.187 78.7264 186.148ZM133.819 283.944C136.072 282.925 136.072 282.925 138.325 281.905C140.579 280.886 139.741 279.034 139.741 279.034L137.488 280.053C131.306 278.387 129.89 281.259 133.819 283.944ZM44.8075 63.157L46.2226 60.286C45.3848 58.433 43.1318 59.453 43.1318 59.453C43.1318 59.453 40.8787 60.472 38.6255 61.491L39.4633 63.343C39.4633 63.343 40.301 65.195 42.5541 64.176L44.8075 63.157ZM121.658 305.063C120.82 303.21 120.82 303.211 117.729 302.378C118.567 304.23 119.405 306.082 121.658 305.063C119.405 306.082 121.658 305.063 121.658 305.063ZM146.964 307.003C149.217 305.984 149.217 305.984 146.964 307.003C146.126 305.151 146.126 305.151 146.126 305.151L143.872 306.171L140.782 305.337L139.944 303.485C139.944 303.485 139.106 301.633 136.853 302.652L134.6 303.671C133.762 301.819 133.762 301.819 130.671 300.986L128.417 302.005L126.164 303.024C126.164 303.024 123.911 304.044 124.749 305.896L125.587 307.748L128.678 308.581C129.516 310.433 130.353 312.286 132.607 311.266L134.86 310.247L137.113 309.228C145.548 309.875 145.548 309.875 146.964 307.003L150.055 307.837C151.47 304.965 149.217 305.984 146.964 307.003ZM43.1638 137.53L42.326 135.678L43.1638 137.53C44.0016 139.382 44.0016 139.382 43.1638 137.53ZM54.8932 163.461L51.8021 162.628L54.8932 163.461C55.731 165.313 55.731 165.313 54.8932 163.461ZM135.698 312.099C135.698 312.099 137.951 311.08 135.698 312.099V312.099ZM54.6579 60.933C55.4957 62.785 55.4957 62.785 56.3335 64.637L58.5868 63.618C60.84 62.599 60.002 60.746 60.002 60.746L59.1642 58.894C58.3264 57.042 56.0733 58.061 53.8201 59.08L54.6579 60.933ZM26.4647 82.61L28.7176 81.591C27.8798 79.739 27.88 79.738 25.6268 80.758C24.789 78.905 24.7889 78.906 21.6979 78.073L19.4449 79.092L17.1916 80.111L18.0294 81.963L19.705 85.667L21.9584 84.648C21.9584 84.648 22.796 86.501 25.0491 85.481L26.4647 82.61ZM164.989 298.85C162.736 299.869 161.898 298.017 161.898 298.017L159.645 299.036L161.898 298.017L159.645 299.036L160.483 300.888L169.495 296.812C167.242 297.831 167.242 297.831 164.989 298.85ZM23.0563 93.076C25.3095 92.057 25.3095 92.057 23.0563 93.076L25.3096 92.057C25.3096 92.057 25.3094 92.057 28.4004 92.89L30.6537 91.871L32.9067 90.852L34.3222 87.98L33.4844 86.128L32.6466 84.276C30.3934 85.295 30.3935 85.295 28.1403 86.314L28.9781 88.167C28.9781 88.167 28.978 88.167 26.7248 89.186C26.7248 89.186 26.7248 89.186 25.887 87.334C25.887 87.334 25.8872 87.333 22.7962 86.5L23.0563 93.076ZM150.112 289.961C150.949 291.814 150.949 291.813 153.203 290.794L154.04 292.646L156.294 291.627L158.547 290.608L160.8 289.589L159.962 287.737C159.962 287.737 159.124 285.885 156.871 286.904C156.871 286.904 156.871 286.904 159.124 285.884L161.377 284.865L163.631 283.846L165.884 282.827L168.137 281.808C168.137 281.808 170.39 280.789 169.553 278.936L172.643 279.769L174.897 278.75L174.059 276.898L173.221 275.046L174.637 272.174L173.799 270.322L171.545 271.341L169.292 272.361C167.039 273.38 167.039 273.38 167.877 275.232L168.715 277.084C168.715 277.084 168.715 277.084 169.553 278.936C169.553 278.936 169.552 278.936 167.299 279.956L168.137 281.808L167.299 279.956C167.299 279.956 167.299 279.956 164.209 279.123L161.955 280.142L159.702 281.161L157.449 282.18L155.196 283.199L152.943 284.218C152.105 282.366 149.851 283.385 149.851 283.385L147.598 284.405L145.345 285.424C145.345 285.424 145.345 285.424 143.93 288.295L144.767 290.147L145.605 292L147.859 290.98C149.274 288.109 149.274 288.109 150.112 289.961ZM75.5784 203.19L74.7406 201.338L73.9028 199.486L75.5784 203.19C73.3252 204.21 75.5784 203.19 75.5784 203.19ZM113.451 232.915L116.542 233.748C116.542 233.748 118.795 232.728 121.049 231.709C121.886 233.562 124.139 232.542 124.139 232.542L126.393 231.523L128.646 230.504C130.899 229.485 130.061 227.633 129.223 225.78L126.133 224.947L123.879 225.966L121.626 226.986C121.626 226.986 120.788 225.133 118.535 226.153C116.282 227.172 116.282 227.172 114.029 228.191L111.775 229.21L108.684 228.377L106.431 229.396L104.178 230.416L113.451 232.915ZM43.189 41.577C45.4421 40.558 45.4421 40.558 43.189 41.577C42.3512 39.725 42.3512 39.725 43.189 41.577C42.3512 39.725 42.3512 39.725 43.189 41.577C42.3512 39.725 42.3512 39.725 43.189 41.577C40.098 40.744 40.098 40.744 43.189 41.577ZM112.873 237.638L112.036 235.786L109.783 236.805C107.529 237.824 105.276 238.844 106.114 240.696L106.952 242.548L109.205 241.529L106.952 242.548C106.952 242.548 110.043 243.381 109.205 241.529C111.458 240.51 111.458 240.51 112.873 237.638ZM86.7301 233.845C85.8923 231.993 85.8923 231.993 86.7301 233.845L88.1456 230.974C88.1456 230.974 88.1454 230.974 90.3986 229.955L92.652 228.935L91.8141 227.083L90.9763 225.231L87.8852 224.398L87.0473 222.546L86.2095 220.694L83.9566 221.713L81.7032 222.732L79.4499 223.751C79.4499 223.751 80.2879 225.603 78.0347 226.622L86.7301 233.845ZM119.112 221.429C119.112 221.429 119.95 223.281 119.112 221.429L122.204 222.262C124.457 221.243 123.619 219.391 123.619 219.391L122.781 217.538C122.781 217.538 123.619 219.391 125.872 218.372L128.125 217.352C128.125 217.352 130.378 216.333 129.541 214.481L131.794 213.462L132.632 215.314L134.885 214.295C137.138 213.276 136.3 211.423 136.3 211.423L134.047 212.442L131.794 213.462L130.956 211.609C130.118 209.757 127.865 210.776 127.865 210.776L125.612 211.796L123.359 212.815C123.359 212.815 123.359 212.815 124.196 214.667L121.943 215.686L119.69 216.705C119.69 216.705 119.69 216.705 118.852 214.853L118.014 213.001L115.761 214.02C113.508 215.039 111.255 216.058 112.093 217.911L112.93 219.763C118.275 219.577 119.112 221.429 119.112 221.429ZM94.588 239.216C96.841 238.197 96.841 238.197 99.094 237.178C98.256 235.325 98.256 235.325 97.418 233.473C97.418 233.473 94.327 232.64 92.912 235.511L90.6591 236.531L92.335 240.235C90.0815 241.254 92.334 240.235 94.588 239.216C92.334 240.235 94.588 239.216 94.588 239.216ZM92.595 246.811C94.848 245.792 94.848 245.792 92.595 246.811C94.848 245.792 95.686 247.644 95.686 247.644C97.939 246.625 97.101 244.772 99.354 243.753C98.517 241.901 98.517 241.901 96.263 242.92C94.01 243.94 91.757 244.959 92.595 246.811C91.757 244.959 91.757 244.959 92.595 246.811C91.757 244.959 91.757 244.959 91.757 244.959L92.595 246.811C93.433 248.663 92.595 246.811 92.595 246.811ZM170.041 214.011L166.95 213.178C166.95 213.178 163.859 212.345 161.606 213.364C161.606 213.364 161.606 213.364 162.444 215.216C163.282 217.068 163.281 217.068 165.535 216.049C168.626 216.882 170.879 215.863 170.041 214.011ZM63.1503 43.704C63.1503 43.704 63.9881 45.556 63.1503 43.704C63.9881 45.556 63.9879 45.556 66.241 44.537L68.4944 43.518L70.7477 42.499L69.9099 40.646C69.9099 40.646 69.9099 40.646 69.0721 38.794L65.9809 37.961C63.7278 38.98 63.7278 38.98 61.4746 40C62.3124 41.852 60.8971 44.723 63.1503 43.704ZM32.5004 41.95C30.2472 42.969 28.832 45.84 31.923 46.673L35.0138 47.506C35.0138 47.506 35.014 47.506 37.2671 46.487C37.2671 46.487 37.2671 46.487 36.4293 44.635L35.5915 42.783C37.8447 41.763 34.7536 40.93 32.5004 41.95C34.7536 40.93 34.7536 40.93 32.5004 41.95ZM51.6239 42.224C48.5329 41.391 48.5331 41.391 48.5331 41.391C46.2799 42.41 44.0268 43.429 44.8646 45.282C42.6114 46.301 42.6113 46.301 43.4491 48.153L44.2869 50.005L46.5402 48.986L48.7932 47.967L51.0465 46.948L50.2087 45.096C52.4619 44.076 51.6239 42.224 51.6239 42.224ZM42.294 57.6C44.5472 56.581 44.547 56.581 44.547 56.581L46.8003 55.562L45.9625 53.71C45.1247 51.858 42.8714 52.877 42.8714 52.877C42.8714 52.877 42.8716 52.877 40.6184 53.896C38.3652 54.915 38.3653 54.915 36.1121 55.934C33.8589 56.953 31.6054 57.973 31.6054 57.973C31.6054 57.973 32.4434 59.825 34.6966 58.806C36.9498 57.786 36.9497 57.786 39.2029 56.767C39.2029 56.767 40.0409 58.62 42.294 57.6ZM86.8444 198.095C86.0065 196.242 86.0064 196.242 82.9154 195.409L80.6621 196.429L78.4091 197.448L79.2469 199.3C82.3379 200.133 82.338 200.133 86.8444 198.095ZM99.786 196.703C100.624 198.555 100.624 198.555 100.624 198.555L102.877 197.536C105.13 196.517 105.13 196.517 105.13 196.517L104.292 194.665C104.292 194.665 104.292 194.665 101.201 193.832L98.948 194.851C98.948 194.851 98.948 194.851 96.695 195.87L97.533 197.722L99.786 196.703ZM34.2331 27.779C35.0709 29.631 37.3241 28.612 34.2331 27.779L37.3243 28.612C37.3243 28.612 37.3241 28.612 39.5772 27.593L38.1621 30.464L38.9999 32.316L39.8377 34.168L42.9285 35.001L44.344 32.13L43.5062 30.278C44.9216 27.406 44.9216 27.406 41.8306 26.573L39.5772 27.593L37.3243 28.612C37.3243 28.612 36.4863 26.759 34.2331 27.779L31.142 26.946L22.1294 31.022L22.9672 32.875C28.8889 27.965 31.98 28.798 34.2331 27.779ZM79.7675 212.452C79.7675 212.452 82.0207 211.432 79.7675 212.452C82.0207 211.432 84.2738 210.413 83.436 208.561L82.5982 206.709L80.3449 207.728L78.0919 208.747L79.7675 212.452C78.3521 215.323 78.3521 215.323 79.7675 212.452ZM8.29293 48.437C10.5461 47.418 10.5461 47.418 8.29293 48.437L9.70843 45.565C11.9616 44.546 13.3769 41.675 12.5391 39.823C11.7013 37.97 11.7011 37.97 8.61013 37.137L6.35713 38.157L4.10383 39.176C4.10383 39.176 1.85088 40.195 2.68873 42.047C1.27332 44.919 -0.142351 47.79 1.53328 51.494C6.87743 51.308 9.13073 50.289 8.29293 48.437ZM78.1418 16.842C75.8886 17.861 75.8887 17.861 74.4733 20.733C74.4733 20.733 75.3109 22.585 77.5641 21.566L79.8174 20.547L82.0704 19.528C83.4858 16.656 83.4858 16.656 80.3948 15.823L78.1418 16.842ZM44.6041 38.706C45.4419 40.558 45.4419 40.558 44.6041 38.706L47.6953 39.539C49.9484 38.52 49.9482 38.52 49.1104 36.668C48.2726 34.815 48.2728 34.815 45.1818 33.982C45.1818 33.982 45.1817 33.982 42.9285 35.001C42.9285 35.001 42.0909 33.149 39.8377 34.168L37.5844 35.188C36.169 38.059 36.169 38.059 39.26 38.892C42.351 39.725 42.3509 39.725 44.6041 38.706ZM92.131 215.784C92.131 215.784 94.385 214.765 92.131 215.784L94.385 214.765L93.547 212.912C93.547 212.912 90.4556 212.08 88.2024 213.099C88.2024 213.099 85.9495 214.118 86.7873 215.97C91.2936 213.932 91.2936 213.932 92.131 215.784ZM60.1162 24.996C57.8631 26.015 58.7007 27.867 58.7007 27.867L59.5385 29.719C59.5385 29.719 59.5385 29.719 60.3763 31.572L61.2142 33.424L62.052 35.276L64.3053 34.257L66.5586 33.238L65.7208 31.385L64.883 29.533L66.2982 26.662L65.4604 24.81L60.1162 24.996ZM98.631 206.15L97.793 204.298C97.793 204.298 97.793 204.298 95.54 205.317C94.702 203.465 94.702 203.465 91.6108 202.632L89.3578 203.651C89.3578 203.651 86.2665 202.818 84.0133 203.838L81.7604 204.857C82.5982 206.709 82.5982 206.709 82.5982 206.709L84.8512 205.69C84.8512 205.69 84.8513 205.69 87.9423 206.523L90.1956 205.503C91.0334 207.356 93.287 206.337 95.54 205.317C97.215 209.022 99.468 208.003 98.631 206.15ZM80.7124 4.52399L78.459 5.54299C78.459 5.54299 78.4592 5.54299 80.7124 4.52399L82.9653 3.50399L85.2187 2.48499L84.3809 0.632996C84.3809 0.632996 82.1277 1.65199 80.7124 4.52399C79.8745 2.67099 80.7124 4.52399 80.7124 4.52399ZM137.512 184.101L140.603 184.934L142.856 183.915L142.019 182.062L141.181 180.21L138.928 181.229L136.675 182.249L134.422 183.268L132.168 184.287L133.006 186.139C129.915 185.306 132.168 184.287 137.512 184.101C134.421 183.268 134.421 183.268 137.512 184.101ZM172.091 188.541C170.675 191.412 171.513 193.264 172.351 195.116C174.604 194.097 174.604 194.097 177.695 194.93L176.858 193.078L176.02 191.226L173.766 192.245C177.435 188.354 176.597 186.502 172.091 188.541ZM150.454 182.709C150.454 182.709 151.292 184.561 150.454 182.709L149.039 185.581C149.039 185.581 149.039 185.581 152.13 186.414L154.383 185.395C154.383 185.395 154.383 185.395 155.798 182.523L154.96 180.671C154.96 180.671 154.96 180.671 151.869 179.838L150.454 182.709ZM207.621 159.082L209.297 162.786C211.55 161.767 213.803 160.748 212.966 158.896L212.128 157.044L211.29 155.191C211.29 155.191 211.29 155.191 209.037 156.21C209.875 158.063 209.875 158.063 207.621 159.082ZM126.304 171.321C125.726 176.045 126.564 177.897 128.817 176.878L131.07 175.859L133.323 174.84C131.648 171.135 129.395 172.154 126.304 171.321ZM102.959 83.708C99.868 82.875 97.615 83.895 97.615 83.895L96.199 86.766L97.037 88.618L99.29 87.599C103.797 85.561 103.797 85.561 102.959 83.708ZM99.957 143.077C99.957 143.077 100.795 144.929 99.957 143.077C103.048 143.91 105.301 142.891 105.301 142.891C105.301 142.891 106.716 140.02 104.463 141.039C104.463 141.039 104.463 141.039 103.625 139.187L102.788 137.334C101.95 135.482 99.697 136.501 97.443 137.521L95.19 138.54L97.443 137.521L95.19 138.54L96.028 140.392C99.119 141.225 99.119 141.225 99.957 143.077ZM119.569 78.426C117.316 79.446 115.063 80.465 115.901 82.317C116.738 84.169 117.576 86.021 119.829 85.002C122.082 83.983 121.245 82.131 121.245 82.131L120.407 80.279L119.569 78.426ZM167.089 81.475C165.674 84.346 168.765 85.179 171.018 84.16L173.271 83.141L172.433 81.289C171.595 79.436 170.758 77.584 170.758 77.584L168.505 78.603L167.089 81.475ZM136.7 86.296C135.284 89.167 135.284 89.167 136.122 91.02L133.869 92.039C133.869 92.039 133.869 92.039 132.453 94.91L133.291 96.762C133.291 96.762 133.291 96.762 136.382 97.595L138.635 96.576C138.635 96.576 138.636 96.576 140.051 93.705L139.213 91.853L141.466 90.834C140.628 88.981 140.628 88.981 139.79 87.129L136.7 86.296C138.115 83.425 138.115 83.425 136.7 86.296ZM152.935 110.189C150.682 111.208 151.52 113.06 151.52 113.06C151.52 113.06 152.358 114.912 154.611 113.893L156.864 112.874L158.279 110.003L157.442 108.15L152.935 110.189ZM143.662 107.69C144.5 109.542 145.338 111.394 147.591 110.375L149.844 109.356C149.006 107.504 148.169 105.651 145.916 106.67L143.662 107.69ZM105.936 120.292L107.351 117.421L106.513 115.569L104.26 116.588C102.007 117.607 102.007 117.607 102.007 117.607C102.845 119.459 102.845 119.459 102.845 119.459C102.845 119.459 103.683 121.311 105.936 120.292ZM147.388 85.924C145.973 88.795 146.811 90.647 146.811 90.647L149.901 91.48C151.317 88.609 151.317 88.609 150.479 86.757C149.641 84.905 149.641 84.905 147.388 85.924ZM71.4141 97.977C72.252 99.829 72.2521 99.829 75.3431 100.662L77.5961 99.643C79.8493 98.624 79.0118 96.772 81.2649 95.752C72.8298 95.106 70.5763 96.125 71.4141 97.977ZM61.881 88.902L61.0431 87.05C60.2053 85.198 60.2053 85.198 60.2053 85.198L57.952 86.217L58.7898 88.069C58.2123 92.793 60.4656 91.773 62.7188 90.754L61.881 88.902ZM131.527 32.856C130.111 35.728 130.111 35.728 133.202 36.561L136.293 37.394L138.546 36.375L140.8 35.355C139.962 33.503 139.962 33.503 139.962 33.503C139.962 33.503 139.124 31.651 136.871 32.67C133.78 31.837 133.78 31.837 131.527 32.856ZM86.4057 71.115L87.2435 72.967L89.4968 71.948C94.003 69.91 93.165 68.058 93.165 68.058L92.328 66.205C92.328 66.205 90.0744 67.225 87.8212 68.244C84.7302 67.411 85.5679 69.263 86.4057 71.115ZM119.886 67.127L122.977 67.96L125.23 66.941L127.484 65.922L126.646 64.069L123.555 63.236L121.302 64.255C119.049 65.275 119.886 67.127 119.886 67.127ZM73.8956 25.456C71.6424 26.476 70.227 29.347 68.8116 32.218L69.6494 34.071L72.7406 34.904L74.9935 33.885L77.2469 32.865L76.4091 31.013C76.4091 31.013 76.409 31.013 75.5712 29.161L73.8956 25.456ZM122.4 72.684C120.984 75.555 121.822 77.407 124.075 76.388L127.166 77.221L129.419 76.202C128.582 74.35 128.582 74.35 127.744 72.497C123.815 69.812 121.562 70.831 122.4 72.684ZM114.517 163.266C119.023 161.227 118.186 159.375 118.186 159.375C118.186 159.375 118.186 159.375 115.933 160.394C113.679 161.413 111.426 162.432 112.264 164.285C111.426 162.432 112.264 164.285 114.517 163.266ZM171.627 157.514C170.212 160.385 170.212 160.385 170.212 160.385C170.212 160.385 171.05 162.237 173.303 161.218L175.556 160.199L174.718 158.347L173.881 156.494C173.881 156.494 173.881 156.494 173.043 154.642L171.627 157.514ZM54.3978 54.357C55.2356 56.209 55.2354 56.209 58.3264 57.042L60.5797 56.023L62.833 55.004L61.9952 53.151L61.1574 51.299L58.9041 52.318C58.0663 50.466 55.8131 51.485 54.3978 54.357ZM150.511 164.834L151.349 166.686C151.349 166.686 151.349 166.686 153.602 165.667C155.855 164.648 158.108 163.629 157.271 161.776C156.433 159.924 156.433 159.924 153.342 159.091L151.089 160.11L150.511 164.834ZM46.255 138.363C48.5081 137.343 47.6701 135.491 47.6701 135.491C49.9233 134.472 49.9235 134.472 49.9235 134.472L49.0857 132.62L45.9945 131.787L43.7415 132.806C43.7415 132.806 45.4171 136.51 46.255 138.363ZM65.2893 78.436C67.5425 77.416 69.7957 76.397 68.9578 74.545L72.049 75.378L74.3019 74.359L76.5553 73.34L78.8083 72.321C80.2236 69.449 80.2236 69.449 77.1326 68.616C74.8794 69.635 74.0417 67.783 72.6263 70.654L70.3733 71.673C70.3733 71.673 70.3732 71.674 67.2822 70.841L65.0289 71.86L65.8667 73.712C65.8667 73.712 63.6137 74.731 64.4515 76.583L65.2893 78.436ZM153.024 170.391C153.024 170.391 151.609 173.262 153.024 170.391L150.771 171.41C148.518 172.429 149.356 174.281 149.356 174.281C149.356 174.281 150.194 176.134 152.447 175.114C152.447 175.114 152.447 175.114 154.7 174.095L156.953 173.076C156.953 173.076 156.115 171.224 153.024 170.391ZM171.05 162.237L167.959 161.404L165.706 162.423L166.544 164.275L167.382 166.128L169.634 165.109L171.888 164.089C173.303 161.218 171.05 162.237 171.05 162.237ZM130.029 149.555L126.938 148.722L124.685 149.742L125.523 151.594C126.361 153.446 127.198 155.298 129.451 154.279L131.705 153.26L130.867 151.408L130.029 149.555ZM157.588 150.477L154.497 149.644C152.244 150.663 153.082 152.515 153.082 152.515C153.082 152.515 153.919 154.368 156.172 153.348L158.426 152.329C158.426 152.329 158.426 152.329 157.588 150.477ZM149.47 138.531L150.308 140.383L153.399 141.216C155.652 140.197 155.652 140.197 155.652 140.197L157.067 137.325L156.229 135.473L153.977 136.492C153.139 134.64 150.885 135.659 149.47 138.531ZM103.886 145.762L101.633 146.782L99.379 147.801C99.379 147.801 99.379 147.801 100.217 149.653C97.126 148.82 95.711 151.691 95.711 151.691L96.549 153.544C96.549 153.544 97.387 155.396 99.64 154.377L101.893 153.358L104.146 152.338L106.399 151.319L108.652 150.3L110.906 149.281L113.159 148.262L115.412 147.242L116.827 144.371L103.886 145.762ZM137.106 135.198L135.691 138.07L136.528 139.922C138.781 138.903 138.782 138.903 138.782 138.903C139.619 140.755 139.62 140.755 141.873 139.736L143.288 136.864L142.45 135.012L141.612 133.16L139.359 134.179C139.359 134.179 139.359 134.179 137.944 137.051C137.106 135.198 137.106 135.198 134.853 136.218L137.106 135.198ZM173.938 138.619C170.847 137.786 170.847 137.786 173.938 138.619C170.847 137.786 168.594 138.805 169.432 140.657C167.178 141.677 167.178 141.677 164.925 142.696C163.509 145.567 166.601 146.4 166.601 146.4C166.601 146.4 166.601 146.4 168.854 145.381C171.107 144.362 171.107 144.362 173.36 143.343L175.613 142.323C174.776 140.471 173.938 138.619 173.938 138.619ZM208.11 94.157C205.857 95.176 205.857 95.176 208.11 94.157L203.604 96.195C204.441 98.047 204.441 98.047 207.532 98.88L209.786 97.861L212.039 96.842C214.292 95.823 214.292 95.823 214.292 95.823C216.545 94.803 216.545 94.803 215.707 92.951L214.87 91.099L214.032 89.247L211.778 90.266C210.363 93.137 208.11 94.157 208.11 94.157ZM174.515 133.895C175.353 135.748 175.353 135.748 175.353 135.748L178.444 136.581L180.697 135.561C180.697 135.561 182.113 132.69 179.022 131.857C179.022 131.857 178.184 130.005 175.931 131.024L174.515 133.895Z" fill="#5D5FEF"/>
</svg>
